name Walk7.mot
datacolumns 19
datarows 25
range 3.46200000 3.48600000
endheader

                time	   L_ground_force_vx	   L_ground_force_vy	   L_ground_force_vz	   L_ground_force_px	   L_ground_force_py	   L_ground_force_pz	   R_ground_force_vx	   R_ground_force_vy	   R_ground_force_vz	   R_ground_force_px	   R_ground_force_py	   R_ground_force_pz	   L_ground_torque_x	   L_ground_torque_y	   L_ground_torque_z	   R_ground_torque_x	   R_ground_torque_y	   R_ground_torque_z	
          3.46200000	        -10.94924766	        894.10761890	        -79.05423775	          0.23037555	          0.00000000	          0.12525250	          0.00000000	          0.00000000	          0.00000000	          0.00000000	          0.00000000	          0.00000000	          0.00000000	         10.57777615	          0.00000000	          0.00000000	          0.00000000	          0.00000000	
          3.46300000	        -10.67033680	        893.65249210	        -78.84683904	          0.23057977	          0.00000000	          0.12526343	          0.00000000	          0.00000000	          0.00000000	          0.00000000	          0.00000000	          0.00000000	          0.00000000	         10.50513560	          0.00000000	          0.00000000	          0.00000000	          0.00000000	
          3.46400000	        -10.42599180	        893.12733230	        -78.64838150	          0.23076870	          0.00000000	          0.12524713	          0.00000000	          0.00000000	          0.00000000	          0.00000000	          0.00000000	          0.00000000	          0.00000000	         10.43811057	          0.00000000	          0.00000000	          0.00000000	          0.00000000	
          3.46500000	        -10.20359719	        892.61105732	        -78.45152743	          0.23097116	          0.00000000	          0.12522044	          0.00000000	          0.00000000	          0.00000000	          0.00000000	          0.00000000	          0.00000000	          0.00000000	         10.36969043	          0.00000000	          0.00000000	          0.00000000	          0.00000000	
          3.46600000	         -9.97367762	        892.16488964	        -78.24348526	          0.23120577	          0.00000000	          0.12519696	          0.00000000	          0.00000000	          0.00000000	          0.00000000	          0.00000000	          0.00000000	          0.00000000	         10.29648869	          0.00000000	          0.00000000	          0.00000000	          0.00000000	
          3.46700000	         -9.71298056	        891.78118902	        -78.01854610	          0.23146316	          0.00000000	          0.12517533	          0.00000000	          0.00000000	          0.00000000	          0.00000000	          0.00000000	          0.00000000	          0.00000000	         10.22117608	          0.00000000	          0.00000000	          0.00000000	          0.00000000	
          3.46800000	         -9.41828225	        891.40442667	        -77.77871442	          0.23172751	          0.00000000	          0.12514966	          0.00000000	          0.00000000	          0.00000000	          0.00000000	          0.00000000	          0.00000000	          0.00000000	         10.14729498	          0.00000000	          0.00000000	          0.00000000	          0.00000000	
          3.46900000	         -9.10283126	        890.98022396	        -77.52978310	          0.23199461	          0.00000000	          0.12512068	          0.00000000	          0.00000000	          0.00000000	          0.00000000	          0.00000000	          0.00000000	          0.00000000	         10.07609395	          0.00000000	          0.00000000	          0.00000000	          0.00000000	
          3.47000000	         -8.78728106	        890.48737757	        -77.27284496	          0.23226593	          0.00000000	          0.12509277	          0.00000000	          0.00000000	          0.00000000	          0.00000000	          0.00000000	          0.00000000	          0.00000000	         10.00718720	          0.00000000	          0.00000000	          0.00000000	          0.00000000	
          3.47100000	         -8.49088731	        889.93349409	        -76.99919447	          0.23253561	          0.00000000	          0.12506509	          0.00000000	          0.00000000	          0.00000000	          0.00000000	          0.00000000	          0.00000000	          0.00000000	          9.94090727	          0.00000000	          0.00000000	          0.00000000	          0.00000000	
          3.47200000	         -8.22376006	        889.34798891	        -76.70304555	          0.23279087	          0.00000000	          0.12503120	          0.00000000	          0.00000000	          0.00000000	          0.00000000	          0.00000000	          0.00000000	          0.00000000	          9.87914439	          0.00000000	          0.00000000	          0.00000000	          0.00000000	
          3.47300000	         -7.98248547	        888.78218560	        -76.39511131	          0.23302223	          0.00000000	          0.12498722	          0.00000000	          0.00000000	          0.00000000	          0.00000000	          0.00000000	          0.00000000	          0.00000000	          9.82369423	          0.00000000	          0.00000000	          0.00000000	          0.00000000	
          3.47400000	         -7.74909134	        888.26513308	        -76.09218816	          0.23322572	          0.00000000	          0.12493038	          0.00000000	          0.00000000	          0.00000000	          0.00000000	          0.00000000	          0.00000000	          0.00000000	          9.77371572	          0.00000000	          0.00000000	          0.00000000	          0.00000000	
          3.47500000	         -7.49999129	        887.76226920	        -75.79731245	          0.23339664	          0.00000000	          0.12485518	          0.00000000	          0.00000000	          0.00000000	          0.00000000	          0.00000000	          0.00000000	          0.00000000	          9.72384010	          0.00000000	          0.00000000	          0.00000000	          0.00000000	
          3.47600000	         -7.22500347	        887.22434123	        -75.49258669	          0.23353375	          0.00000000	          0.12476996	          0.00000000	          0.00000000	          0.00000000	          0.00000000	          0.00000000	          0.00000000	          0.00000000	          9.66424444	          0.00000000	          0.00000000	          0.00000000	          0.00000000	
          3.47700000	         -6.93607389	        886.64296397	        -75.15162855	          0.23364828	          0.00000000	          0.12470276	          0.00000000	          0.00000000	          0.00000000	          0.00000000	          0.00000000	          0.00000000	          0.00000000	          9.58607299	          0.00000000	          0.00000000	          0.00000000	          0.00000000	
          3.47800000	         -6.65439054	        886.04252735	        -74.76593176	          0.23376565	          0.00000000	          0.12467494	          0.00000000	          0.00000000	          0.00000000	          0.00000000	          0.00000000	          0.00000000	          0.00000000	          9.49002879	          0.00000000	          0.00000000	          0.00000000	          0.00000000	
          3.47900000	         -6.39000041	        885.46728907	        -74.35318863	          0.23391882	          0.00000000	          0.12468808	          0.00000000	          0.00000000	          0.00000000	          0.00000000	          0.00000000	          0.00000000	          0.00000000	          9.38668607	          0.00000000	          0.00000000	          0.00000000	          0.00000000	
          3.48000000	         -6.13529944	        884.95787443	        -73.93828492	          0.23412787	          0.00000000	          0.12473098	          0.00000000	          0.00000000	          0.00000000	          0.00000000	          0.00000000	          0.00000000	          0.00000000	          9.28757058	          0.00000000	          0.00000000	          0.00000000	          0.00000000	
          3.48100000	         -5.87576812	        884.51755241	        -73.53888738	          0.23439079	          0.00000000	          0.12478317	          0.00000000	          0.00000000	          0.00000000	          0.00000000	          0.00000000	          0.00000000	          0.00000000	          9.19832424	          0.00000000	          0.00000000	          0.00000000	          0.00000000	
          3.48200000	         -5.60189332	        884.13032830	        -73.16347493	          0.23470075	          0.00000000	          0.12482810	          0.00000000	          0.00000000	          0.00000000	          0.00000000	          0.00000000	          0.00000000	          0.00000000	          9.11902383	          0.00000000	          0.00000000	          0.00000000	          0.00000000	
          3.48300000	         -5.31373069	        883.79730672	        -72.81018774	          0.23505166	          0.00000000	          0.12486237	          0.00000000	          0.00000000	          0.00000000	          0.00000000	          0.00000000	          0.00000000	          0.00000000	          9.04770469	          0.00000000	          0.00000000	          0.00000000	          0.00000000	
          3.48400000	         -5.01938311	        883.52035374	        -72.47332699	          0.23542080	          0.00000000	          0.12488158	          0.00000000	          0.00000000	          0.00000000	          0.00000000	          0.00000000	          0.00000000	          0.00000000	          8.98268367	          0.00000000	          0.00000000	          0.00000000	          0.00000000	
          3.48500000	         -4.72889068	        883.25609109	        -72.15451832	          0.23576506	          0.00000000	          0.12487192	          0.00000000	          0.00000000	          0.00000000	          0.00000000	          0.00000000	          0.00000000	          0.00000000	          8.92298064	          0.00000000	          0.00000000	          0.00000000	          0.00000000	
          3.48600000	         -4.44904066	        882.91802032	        -71.85936315	          0.23604693	          0.00000000	          0.12482065	          0.00000000	          0.00000000	          0.00000000	          0.00000000	          0.00000000	          0.00000000	          0.00000000	          8.86607761	          0.00000000	          0.00000000	          0.00000000	          0.00000000	
